<svg width="10" height="16" viewBox="0 0 10 16" fill="none" xmlns="http://www.w3.org/2000/svg">
<path d="M7.99997 15.5002C7.8358 15.5004 7.6732 15.4681 7.52154 15.4053C7.36988 15.3424 7.23213 15.2502 7.11622 15.1339L0.866217 8.88395C0.750116 8.76791 0.658016 8.63013 0.595179 8.47849C0.532342 8.32685 0.5 8.16431 0.5 8.00016C0.5 7.83601 0.532342 7.67347 0.595179 7.52183C0.658016 7.37019 0.750116 7.23241 0.866217 7.11637L7.11622 0.866373C7.35112 0.63442 7.66825 0.50482 7.99837 0.505866C8.32848 0.506911 8.64478 0.638518 8.87821 0.871954C9.11164 1.10539 9.24323 1.4217 9.24426 1.75182C9.24529 2.08194 9.11568 2.39906 8.88372 2.63395L3.51754 8.0002L8.88379 13.3664C9.05856 13.5413 9.17757 13.764 9.22577 14.0064C9.27398 14.2489 9.24922 14.5002 9.15462 14.7286C9.06003 14.9569 8.89984 15.1521 8.69432 15.2895C8.48879 15.4268 8.24716 15.5002 7.99997 15.5002V15.5002Z" fill="white"/>
</svg>
