<svg width="18" height="18" viewBox="0 0 18 18" fill="none" xmlns="http://www.w3.org/2000/svg">
<path d="M17.6062 17.0437C16.0594 16.3687 14.4422 15.8906 12.7969 15.5953V9.35156C12.7969 9.12656 12.8672 8.91562 13.0078 8.73281L14.6391 6.69375C14.8922 6.37031 15.0328 5.9625 15.0328 5.55469V2.53125C15.0328 2.29219 14.85 2.10938 14.6109 2.10938H12.5156C12.2766 2.10938 12.0937 2.29219 12.0937 2.53125V3.79688H10.8281V2.53125C10.8281 2.29219 10.6453 2.10938 10.4062 2.10938H7.59375C7.35469 2.10938 7.17187 2.29219 7.17187 2.53125V3.79688H5.90625V2.53125C5.90625 2.29219 5.72344 2.10938 5.48437 2.10938H3.375C3.13594 2.10938 2.95312 2.29219 2.95312 2.53125V5.55469C2.95312 5.9625 3.09375 6.37031 3.34687 6.69375L4.97812 8.73281C5.11875 8.90156 5.18906 9.12656 5.18906 9.35156V15.6094C4.275 15.7781 3.36094 15.9891 2.475 16.2703C2.25 16.3406 2.12344 16.5797 2.19375 16.8047C2.26406 17.0297 2.50312 17.1562 2.72812 17.0859C7.50937 15.5813 12.6703 15.8484 17.2547 17.8313C17.3109 17.8594 17.3672 17.8594 17.4234 17.8594C17.5922 17.8594 17.7469 17.7609 17.8172 17.6062C17.9156 17.3953 17.8172 17.1422 17.6062 17.0437ZM10.3922 5.625H5.5125C5.2875 5.625 5.07656 5.79375 5.0625 6.01875C5.04844 6.25781 5.24531 6.46875 5.48437 6.46875H9.74531C10.2094 6.46875 10.4625 7.03125 10.1391 7.36875L9.98437 7.5375C9.85781 7.66406 9.74531 7.80469 9.63281 7.94531C9.39375 8.25469 9.02812 8.4375 8.63437 8.4375H7.48125C7.25625 8.4375 7.04531 8.60625 7.03125 8.83125C7.01719 9.07031 7.21406 9.28125 7.45312 9.28125H7.74844C8.50781 9.28125 9.14062 9.91406 9.14062 10.6734V10.6875V11.6859C9.09844 11.6859 9.04219 11.6719 9 11.6719C8.08594 11.6719 7.34062 12.4172 7.34062 13.3313V15.3281C6.90469 15.3562 6.46875 15.4125 6.04687 15.4688V9.35156C6.04687 8.94375 5.90625 8.53594 5.65312 8.2125L4.00781 6.17344C3.86719 6.00469 3.79687 5.77969 3.79687 5.55469V2.95312H5.0625V4.21875C5.0625 4.45781 5.24531 4.64062 5.48437 4.64062H7.59375C7.83281 4.64062 8.01562 4.45781 8.01562 4.21875V2.95312H9.98437V4.21875C9.98437 4.45781 10.1672 4.64062 10.4062 4.64062H11.7422C11.5734 5.21719 11.025 5.625 10.3922 5.625ZM0.5625 17.0156C0.323437 17.0156 0.140625 17.1984 0.140625 17.4375C0.140625 17.6766 0.323437 17.8594 0.5625 17.8594C0.801562 17.8594 0.984375 17.6766 0.984375 17.4375C0.984375 17.1984 0.801562 17.0156 0.5625 17.0156Z" fill="#C4A14C"/>
</svg>
