<svg width="25" height="24" viewBox="0 0 25 24" fill="none" xmlns="http://www.w3.org/2000/svg">
<path d="M12.4999 1.02856C6.19275 1.02856 1.07129 5.93822 1.07129 12C1.07129 18.0616 6.19275 22.9714 12.4999 22.9714C18.8142 22.9714 23.9284 18.0616 23.9284 12C23.9284 5.93822 18.8142 1.02856 12.4999 1.02856ZM18.5927 19.6113C18.2499 18.6857 18.0999 17.2319 18.2499 16.8891C18.4356 16.4503 18.707 16.0731 19.1856 15.8948C19.5356 15.7714 19.7784 15.8948 19.8641 16.2377C19.8927 16.3542 19.9428 16.4913 19.9642 16.608C20.0142 16.416 20.1427 16.2239 20.1499 16.025C20.1499 15.6412 19.9141 13.9816 19.8999 13.536C19.8784 12.9805 20.1856 12.6445 20.7141 12.5074C21.157 12.3976 21.2141 12.2811 20.9642 11.8833C20.8856 11.7531 19.3784 10.3336 19.1785 10.1006C18.9142 9.77142 18.9499 9.44229 19.2713 9.1679C19.4142 9.04452 19.5856 8.94843 19.7999 8.81132C19.5856 8.70167 16.707 7.94731 16.307 7.80334C15.9142 7.65937 15.8499 7.4193 16.0427 7.06975C16.0856 6.98738 16.1284 6.89832 16.1927 6.7885C15.0999 6.7885 14.0856 6.91188 13.1213 7.40557C13.2641 7.15881 13.407 6.91188 13.5784 6.62393C12.9427 7.07644 12.3641 7.50167 11.7642 7.90613C11.1641 8.31076 10.5213 8.66048 9.81418 8.90055C11.4142 7.30278 12.4785 5.42393 12.9927 3.26384C12.9927 3.26384 10.9213 6.69943 9.1356 8.00223C8.34986 8.57143 7.69273 9.29129 7.17132 10.1074C7.07846 10.2514 6.9856 10.4091 6.85703 10.5187C6.2356 11.0605 5.51417 11.4377 4.72132 11.6913C4.17131 11.8627 3.88558 12.2056 3.88558 12.7061C3.88558 13.2 4.32844 13.8514 4.66417 13.9199C4.92131 13.6525 5.12132 13.3714 5.38561 13.1725C6.84989 12.0891 8.52133 11.4102 10.307 10.9989C10.707 10.9097 11.1284 10.8275 11.607 10.9781C11.607 10.9781 6.70702 12.4045 4.99276 15.888C5.17844 15.888 5.87847 15.744 6.1713 15.6616C6.09274 15.8536 6.02133 16.0388 5.95702 16.2239C6.57845 16.1965 6.82843 15.9633 6.85703 15.3737C6.85703 15.3119 6.9356 14.9006 7.02845 14.8182C7.52131 14.3794 7.65702 14.4342 8.17845 14.016C8.46417 13.7896 8.78562 13.6045 9.0856 13.3989C8.57845 14.1188 7.92132 14.7223 7.26418 15.3119C7.14987 15.4149 7.13562 15.5863 7.24273 15.6822C7.65703 16.0662 8.12844 16.169 8.62845 15.977C8.1713 15.4765 8.14989 15.216 8.67845 14.777C9.10701 14.4204 10.7642 13.488 11.157 13.2891C10.9356 13.2616 10.357 13.2 10.1999 13.1863C10.8642 12.2193 13.4285 10.9919 14.3999 11.1907C14.357 11.4171 14.3499 11.6503 14.2785 11.8698C14.1142 12.3907 13.7428 12.7954 13.3428 13.1588C12.4213 14.0091 11.5499 14.9143 10.5642 15.6959C9.28557 16.7039 8.307 19.2274 7.87845 20.5096C4.68557 18.905 2.49986 15.6959 2.49986 12C2.49986 6.70613 6.9856 2.39999 12.4999 2.39999C18.0142 2.39999 22.4999 6.70613 22.4999 12C22.4999 15.0924 20.9713 17.849 18.5927 19.6113ZM9.35703 9.65473C9.35703 9.65473 9.22847 9.94285 8.94988 10.0731C8.6713 10.1965 8.35701 10.121 8.35701 10.121C8.35701 10.121 8.48557 9.83303 8.76416 9.70278C9.04274 9.5794 9.35703 9.65473 9.35703 9.65473Z" fill="#C4A14C"/>
</svg>
